Coordinates
version=1
nRows=27
nColumns=12
inDegrees=yes

Units are S.I. units (second, meters, Newtons, ...)
Angles are in degrees

endheader
time	SC_y	SC_z	SC_x	AC_y	AC_z	AC_x	GH_y	GH_z	GH_yy	EL_x	PS_y
       0.0              -31.51          2.454          22.65          64.24         -11.23         -0.103         -176.9          67.04         -157.0          137.3          128.7
   0.03174               -31.5          2.455          22.65          64.23         -11.22        -0.1047         -176.9          67.04         -157.0          137.3          128.7
   0.06348               -31.5          2.456          22.64          64.23         -11.22        -0.1065         -176.8          67.03         -157.0          137.3          128.6
   0.09521               -31.5          2.457          22.64          64.22         -11.22        -0.1085         -176.8          67.03         -156.9          137.3          128.6
     0.127               -31.5          2.458          22.64          64.22         -11.21        -0.1105         -176.7          67.02         -156.9          137.3          128.6
    0.1587              -31.49          2.459          22.63          64.21         -11.21        -0.1127         -176.7          67.02         -156.9          137.2          128.6
    0.1904              -31.49           2.46          22.63          64.21         -11.21        -0.1151         -176.7          67.01         -156.8          137.2          128.6
    0.2222              -31.49          2.461          22.62           64.2          -11.2        -0.1176         -176.6           67.0         -156.8          137.2          128.6
    0.2539              -31.48          2.463          22.62           64.2          -11.2        -0.1203         -176.6           67.0         -156.8          137.2          128.6
    0.2856              -31.48          2.464          22.61          64.19         -11.19        -0.1231         -176.5          66.99         -156.7          137.2          128.5
    0.3174              -31.48          2.465          22.61          64.18         -11.19        -0.1262         -176.5          66.98         -156.7          137.1          128.5
    0.3491              -31.47          2.467           22.6          64.17         -11.18        -0.1296         -176.4          66.97         -156.6          137.1          128.5
    0.3809              -31.47          2.469           22.6          64.17         -11.17        -0.1331         -176.3          66.96         -156.5          137.1          128.5
    0.4126              -31.46          2.471          22.59          64.16         -11.17         -0.137         -176.3          66.95         -156.5          137.0          128.4
    0.4443              -31.46          2.473          22.58          64.15         -11.16        -0.1412         -176.2          66.94         -156.4          137.0          128.4
    0.4761              -31.45          2.475          22.57          64.13         -11.15        -0.1458         -176.1          66.92         -156.3          137.0          128.4
    0.5078              -31.45          2.477          22.56          64.12         -11.14        -0.1507         -176.0          66.91         -156.3          136.9          128.3
    0.5395              -31.44           2.48          22.55          64.11         -11.13        -0.1561         -175.9           66.9         -156.2          136.9          128.3
    0.5713              -31.43          2.482          22.54           64.1         -11.12         -0.162         -175.8          66.88         -156.1          136.9          128.3
     0.603              -31.43          2.485          22.53          64.08         -11.11        -0.1684         -175.7          66.86         -156.0          136.8          128.2
    0.6348              -31.42          2.489          22.52          64.06          -11.1        -0.1755         -175.6          66.84         -155.9          136.7          128.2
    0.6665              -31.41          2.492          22.51          64.05         -11.08        -0.1833         -175.4          66.82         -155.7          136.7          128.1
    0.6982               -31.4          2.496          22.49          64.02         -11.07        -0.1919         -175.3          66.79         -155.6          136.6          128.1
      0.73              -31.39          2.501          22.47           64.0         -11.05        -0.2014         -175.1          66.77         -155.4          136.5          128.0
    0.7617              -31.37          2.506          22.45          63.98         -11.03         -0.212         -174.9          66.74         -155.3          136.5          127.9
    0.7934              -31.36          2.512          22.43          63.95         -11.01        -0.2238         -174.7           66.7         -155.1          136.4          127.8
    0.8252              -31.34          2.518          22.41          63.92         -10.99         -0.237         -174.4          66.67         -154.9          136.3          127.7
